<svg xmlns="http://www.w3.org/2000/svg" width="24" height="24" viewBox="0 0 24 24">
    <path fill="#01AC4C" fill-rule="nonzero" d="M12 0C5.383 0 0 5.383 0 12s5.383 12 12 12 12-5.383 12-12S18.617 0 12 0zm1.2 17.898V19.2h-2.4v-1.296c-2.807-.44-3.6-2.402-3.6-3.504h2.4c.013.172.19 1.2 2.4 1.2 1.656 0 2.4-.702 2.4-1.2 0-.389 0-1.2-2.4-1.2-4.176 0-4.8-2.256-4.8-3.6 0-1.546 1.235-3.1 3.6-3.498V4.814h2.4v1.331c2.08.492 2.88 2.224 2.88 3.455h-1.2l-1.2.022C13.663 9.166 13.422 8.4 12 8.4c-1.559 0-2.4.62-2.4 1.2 0 .449 0 1.2 2.4 1.2 4.176 0 4.8 2.256 4.8 3.6 0 1.546-1.235 3.1-3.6 3.498z"/>
</svg>
