<svg xmlns="http://www.w3.org/2000/svg" width="24" height="24" viewBox="0 0 24 24">
    <g fill="none" fill-rule="evenodd">
        <circle cx="12" cy="12" r="12" fill="#FBAE39"/>
        <g fill="#FFF" fill-rule="nonzero">
            <path d="M12.033 13.733c1.765 0 3.2-1.435 3.2-3.2 0-1.764-1.435-3.2-3.2-3.2a3.203 3.203 0 0 0-3.2 3.2c0 1.765 1.436 3.2 3.2 3.2zm0-4.8c.883 0 1.6.718 1.6 1.6 0 .883-.717 1.6-1.6 1.6-.882 0-1.6-.717-1.6-1.6 0-.882.718-1.6 1.6-1.6z"/>
            <path d="M11.436 19.851c.278.198.65.198.928 0 .243-.172 5.96-4.299 5.936-9.451 0-3.529-2.871-6.4-6.4-6.4-3.529 0-6.4 2.871-6.4 6.396-.023 5.156 5.693 9.283 5.936 9.455zM11.9 5.6c2.647 0 4.8 2.153 4.8 4.804.017 3.55-3.51 6.738-4.8 7.784-1.289-1.046-4.817-4.235-4.8-7.788 0-2.647 2.153-4.8 4.8-4.8z"/>
        </g>
    </g>
</svg>
